<?xml version="1.0" encoding="UTF-8" ?>

<!-- Created with PPL (https://www.ppl-lang.dev) -->		

<svg xmlns="http://www.w3.org/2000/svg" width="370" height="410">
<rect x="0" y="0" width="370" height="410" style="stroke-width:0; fill:white" />
<line x1="70" y1="50" x2="70" y2="20" stroke="black" stroke-width="2" />
<line x1="200" y1="50" x2="200" y2="20" stroke="black" stroke-width="2" />
<rect x="70" y="50" width="130" height="40" fill="white" stroke="black" stroke-width="2" />
<text x="90" y="75" font-size="16" font-family="Verdana" fill="black">
B000</text>
<text x="20" y="75" font-size="16" font-family="Verdana">
A0A1</text>
<line x1="70" y1="90" x2="70" y2="120" stroke="black" stroke-width="2" />
<line x1="200" y1="90" x2="200" y2="120" stroke="black" stroke-width="2" />
<text x="210" y="75" font-size="16" font-family="Verdana">
(variable &apos;name&apos;)</text>
<line x1="135" y1="135" x2="137" y2="137" stroke="black" stroke-width="2" />
<line x1="135" y1="145" x2="137" y2="147" stroke="black" stroke-width="2" />
<line x1="135" y1="155" x2="137" y2="157" stroke="black" stroke-width="2" />
<line x1="70" y1="200" x2="70" y2="170" stroke="black" stroke-width="2" />
<line x1="200" y1="200" x2="200" y2="170" stroke="black" stroke-width="2" />
<rect x="70" y="200" width="130" height="40" fill="white" stroke="black" stroke-width="2" />
<text x="90" y="225" font-size="16" font-family="Verdana" fill="black">
0042 (&quot;B&quot;)</text>
<text x="20" y="225" font-size="16" font-family="Verdana">
B000</text>
<rect x="70" y="240" width="130" height="40" fill="white" stroke="black" stroke-width="2" />
<text x="90" y="265" font-size="16" font-family="Verdana" fill="black">
006F (&quot;o&quot;)</text>
<text x="20" y="265" font-size="16" font-family="Verdana">
B001</text>
<rect x="70" y="280" width="130" height="40" fill="white" stroke="black" stroke-width="2" />
<text x="90" y="305" font-size="16" font-family="Verdana" fill="black">
0062 (&quot;b&quot;)</text>
<text x="20" y="305" font-size="16" font-family="Verdana">
B002</text>
<rect x="70" y="320" width="130" height="40" fill="white" stroke="black" stroke-width="2" />
<text x="90" y="345" font-size="16" font-family="Verdana" fill="black">
0000</text>
<text x="20" y="345" font-size="16" font-family="Verdana">
B003</text>
<line x1="70" y1="360" x2="70" y2="390" stroke="black" stroke-width="2" />
<line x1="200" y1="360" x2="200" y2="390" stroke="black" stroke-width="2" />
</svg>
